HIERARCHY
ROOT Hips
{
  OFFSET -33.9132 29.2015 117.021
  CHANNELS 6 Xposition Yposition Zposition Zrotation Xrotation Yrotation
  JOINT LeftUpLeg
  {
    OFFSET 8.64259 1.95398 -2.38835
    CHANNELS 3 Zrotation Xrotation Yrotation
    JOINT LeftLeg
    {
      OFFSET 43.7702 0 0
      CHANNELS 3 Zrotation Xrotation Yrotation
      JOINT LeftFoot
      {
        OFFSET 40.6238 0 0
        CHANNELS 3 Zrotation Xrotation Yrotation
        JOINT LeftToeBase
        {
          OFFSET 12.7242 0 0
          CHANNELS 3 Zrotation Xrotation Yrotation
          End Site
          {
            OFFSET 0 0 0
          }
        }
      }
    }
  }
  JOINT RightUpLeg
  {
    OFFSET -8.2249 1.95398 -2.59336
    CHANNELS 3 Zrotation Xrotation Yrotation
    JOINT RightLeg
    {
      OFFSET 43.5653 0 0
      CHANNELS 3 Zrotation Xrotation Yrotation
      JOINT RightFoot
      {
        OFFSET 40.6238 0 0
        CHANNELS 3 Zrotation Xrotation Yrotation
        JOINT RightToeBase
        {
          OFFSET 12.7242 0 0
          CHANNELS 3 Zrotation Xrotation Yrotation
          End Site
          {
            OFFSET 0 0 0
          }
        }
      }
    }
  }
  JOINT Spine
  {
    OFFSET 0.165834 0.87714 6.61349
    CHANNELS 3 Zrotation Xrotation Yrotation
    JOINT Spine1
    {
      OFFSET 7.38963 1.71661e-005 0
      CHANNELS 3 Zrotation Xrotation Yrotation
      JOINT Spine2
      {
        OFFSET 11.9445 1.14441e-005 0
        CHANNELS 3 Zrotation Xrotation Yrotation
        JOINT Spine3
        {
          OFFSET 14.7254 4.19617e-005 0
          CHANNELS 3 Zrotation Xrotation Yrotation
          JOINT Spine4
          {
            OFFSET 10.9679 0 0
            CHANNELS 3 Zrotation Xrotation Yrotation
            JOINT RightShoulder
            {
              OFFSET 2.46616 -1.6653 3.69651
              CHANNELS 3 Zrotation Xrotation Yrotation
              JOINT RightArm
              {
                OFFSET 13.0012 0 0
                CHANNELS 3 Zrotation Xrotation Yrotation
                JOINT RightForeArm
                {
                  OFFSET 28.7848 1.62311e-005 0
                  CHANNELS 3 Zrotation Xrotation Yrotation
                  JOINT RightHand
                  {
                    OFFSET 26.5688 1.62095e-005 0
                    CHANNELS 3 Zrotation Xrotation Yrotation
                    End Site
                    {
                      OFFSET 0 0 0
                    }
                  }
                }
              }
            }
            JOINT LeftShoulder
            {
              OFFSET 2.38034 -1.29275 -3.7523
              CHANNELS 3 Zrotation Xrotation Yrotation
              JOINT LeftArm
              {
                OFFSET 16.3182 6.07031e-005 0
                CHANNELS 3 Zrotation Xrotation Yrotation
                JOINT LeftForeArm
                {
                  OFFSET 27.0901 0 0
                  CHANNELS 3 Zrotation Xrotation Yrotation
                  JOINT LeftHand
                  {
                    OFFSET 24.5451 1.51738e-005 0
                    CHANNELS 3 Zrotation Xrotation Yrotation
                    End Site
                    {
                      OFFSET 0 0 0
                    }
                  }
                }
              }
            }
            JOINT Neck
            {
              OFFSET 5.0226 -0.0266342 0
              CHANNELS 3 Zrotation Xrotation Yrotation
              JOINT Head
              {
                OFFSET 6.69364 2.86102e-005 0
                CHANNELS 3 Zrotation Xrotation Yrotation
                End Site
                {
                  OFFSET 0 0 0
                }
              }
            }
          }
        }
      }
    }
  }
}
MOTION
Frames:	6
Frame Time:	0.0416667
46.4889 102.04 -250.706 -113.84 -82.1068 -116.37 -174.259 -3.44747 90.3774 -6.8093 14.2972 -0.134508 66.8443 5.9166 2.92023 20.0856 -9.07699 9.1703 173.825 -2.33218 90.1151 -12.6255 -8.1167 0.0205663 69.2839 -4.91707 2.15121 25.7896 1.36389 0.0688818 0.512928 7.55758 -90.0039 11.7597 1.01834 -0.115243 0.0891025 1.0123 -0.159965 -22.4492 1.00589 0.196176 -2.43654 1.0059 0.196164 93.8469 -26.1317 -100.166 54.6678 1.77423 -7.67393 -5.85735 -49.2467 -5.80995 -16.668 1.69243 -17.2454 -87.3982 -48.8858 82.4349 -23.5287 -4.46681 -16.2573 -12.1132 44.3269 -0.0215679 8.6646 -1.35785 -20.4883 5.16777 0.563517 0.517556 -10.3294 0.581179 -1.83237 
46.0273 102.036 -250.626 -113.206 -82.3288 -115.996 -174.459 -2.97245 90.2396 -7.48601 11.9583 0.110018 67.3378 6.05275 1.05054 21.1189 -6.52683 5.66721 173.716 -2.22926 90.1504 -12.4428 -9.1065 0.168954 68.6948 -4.86878 0.448307 26.5941 0.755451 0.934967 0.326505 7.50586 -89.9923 11.8628 0.652961 -0.0543936 0.191979 0.649936 -0.0830837 -22.3445 0.639112 0.144368 -2.33185 0.639118 0.144377 92.05 -26.196 -103.983 53.4946 2.64932 -6.79029 -6.03404 -51.1898 -5.93529 -16.7858 2.07133 -19.7887 -86.8573 -49.6165 83.3793 -22.5505 -4.70744 -12.9056 -11.877 42.2837 -0.0208549 8.65017 -1.12432 -17.5618 3.14226 1.80515 1.72184 -9.08321 1.62752 -2.42693 
45.2976 102.049 -250.611 -112.333 -82.1974 -115.395 -174.666 -2.33836 90.3827 -8.69353 10.3668 0.55143 67.3132 5.38794 -1.58005 23.5865 -7.4167 9.99375 173.727 -2.35949 90.2858 -12.3327 -8.88849 0.251731 68.8646 -5.13817 0.689577 26.6199 0.718874 1.02815 0.365662 7.53469 -89.9315 11.8044 0.759436 0.055743 0.133652 0.761143 0.0222534 -22.4031 0.70756 0.281414 -2.39043 0.707568 0.281413 92.0424 -27.1581 -103.649 52.6314 2.99897 -6.91652 -5.94223 -50.1995 -5.86948 -15.6089 1.94318 -19.9907 -86.6457 -48.3249 83.4901 -23.4091 -4.86538 -12.5641 -11.7224 42.1396 -0.0208073 11.145 -1.4638 -17.0816 3.01195 1.54843 0.080353 -9.38645 1.57656 -1.01123 
44.5671 101.895 -250.609 -110.722 -82.0371 -114.09 -174.41 -2.31673 90.6325 -8.66449 10.1023 0.343151 67.2135 5.64934 -1.79972 24.6157 -6.746 9.90417 174.218 -1.81861 90.6974 -13.4292 -8.37153 -0.144824 69.858 -5.4337 0.749493 25.8515 1.14037 0.765525 0.426899 7.57554 -89.8963 11.7227 0.89776 0.112321 0.0520446 0.901836 0.0726911 -22.4852 0.822496 0.376959 -2.47261 0.822496 0.376958 91.9722 -27.1772 -103.789 52.6208 2.96136 -7.03615 -5.92999 -50.0637 -5.86085 -16.7003 1.98343 -19.2788 -86.6444 -47.7078 83.39 -23.8791 -5.31002 -12.4871 -11.5605 41.3315 -0.0205472 12.7325 -1.65528 -16.4833 2.71914 1.34141 -0.0622006 -9.12637 1.40883 -1.30543 
43.8597 101.593 -250.599 -112.996 -82.443 -116.7 -174.651 -1.43388 90.5893 -10.8529 9.73125 0.634526 68.258 6.8059 -2.19096 25.3519 -6.51871 10.3241 173.925 -0.983002 90.6657 -15.601 -8.52263 0.160314 70.9628 -5.86019 0.0981839 25.7876 0.963004 1.50591 0.447479 7.62681 -89.7847 11.619 0.991027 0.326273 -0.0515721 1.00442 0.28232 -22.5887 0.847154 0.60905 -2.5761 0.847142 0.609029 92.0167 -28.3145 -103.301 52.6995 2.85566 -7.23236 -5.9499 -50.2856 -5.875 -16.9352 1.95251 -18.8372 -86.5617 -46.7603 83.3603 -23.8888 -6.39603 -11.8259 -11.0525 40.7643 -0.0203708 11.8854 -1.62361 -17.1598 1.93923 0.831591 -1.85575 -8.37301 1.11122 0.0421927 
43.1803 101.066 -250.69 -120.239 -82.6044 -123.823 -175.16 0.98784 91.7506 -17.8327 8.75895 1.02475 70.1372 8.57304 -2.68279 27.3713 -5.62379 10.9598 173.556 -0.176942 90.962 -19.2737 -7.97717 0.657431 72.9903 -6.28802 -0.00251164 25.5395 0.906722 2.08116 0.526154 7.7843 -89.8541 11.3048 1.11506 0.179571 -0.365632 1.12189 0.130312 -22.904 1.00954 0.506421 -2.89133 1.00955 0.506425 92.0166 -27.4104 -103.614 53.4935 2.58841 -6.95765 -6.13908 -52.278 -6.01191 -17.598 1.78635 -17.2001 -86.4733 -48.2722 83.7458 -22.0135 -6.76285 -11.5757 -11.1402 38.5755 -0.0197354 10.8789 -1.66263 -18.587 1.23173 0.541709 0.0303995 -7.9161 0.603027 -1.58802 
